<svg xmlns="http://www.w3.org/2000/svg" width="7.02mm" height="6.16mm" viewBox="0 0 19.9 17.46">
  <defs>
    <style>
      .a {
        fill: #231f20;
      }
    </style>
  </defs>
  <title>icon_social_vimeo</title>
  <path class="a" d="M231.29,6.48c1.75-1.38,4.24-4,6.18-4s2.41,1.84,2.68,3.88,1,6.52,2.05,6.52,3.37-4,3.23-5.48-1.83-1.3-2.76-.86c0.86-3.06,2.83-4.86,5.36-4.86s3.14,1.94,3.14,4.1c0,3.29-6.77,13.36-10.86,13.36-2.53,0-3.16-3.67-3.67-5.48s-1.52-6.57-2.7-6.88a4.61,4.61,0,0,0-1.75.93Z" transform="translate(-231.29 -1.69)"/>
</svg>
