<svg xmlns="http://www.w3.org/2000/svg" width="7.76mm" height="9.88mm" viewBox="0 0 22 28">
  <defs>
    <style>
      .a {
        fill: #fff;
      }
    </style>
  </defs>
  <title>icon_s_bookmark</title>
  <path class="a" d="M1482.09,5610h-18.17a1.84,1.84,0,0,0-1.91,1.75v25a1.19,1.19,0,0,0,.6,1.11,1.44,1.44,0,0,0,1.35-.09l8.05-4.35a2.4,2.4,0,0,1,2,0l8.05,4.35a1.71,1.71,0,0,0,.8.22,1.14,1.14,0,0,0,1.15-1.24v-25A1.84,1.84,0,0,0,1482.09,5610Zm1,26.76a0.39,0.39,0,0,1-.12.35,0.49,0.49,0,0,1-.39-0.08l-8.05-4.35a3.42,3.42,0,0,0-3,0l-8.05,4.35a0.49,0.49,0,0,1-.39.08,0.39,0.39,0,0,1-.12-0.35v-25a0.92,0.92,0,0,1,1-.88v0.88a0.48,0.48,0,0,0,1,0v-0.88h16.26v0.88a0.48,0.48,0,0,0,1,0v-0.88a0.92,0.92,0,0,1,1,.88v25h0Z" transform="translate(-1462 -5610)"/>
  <path class="a" d="M1464.39,5613.06a0.46,0.46,0,0,0-.48.44v0.87a0.48,0.48,0,0,0,1,0v-0.87A0.46,0.46,0,0,0,1464.39,5613.06Z" transform="translate(-1462 -5610)"/>
  <path class="a" d="M1464.39,5615.69a0.46,0.46,0,0,0-.48.44v18.81a0.48,0.48,0,0,0,1,0v-18.81A0.46,0.46,0,0,0,1464.39,5615.69Z" transform="translate(-1462 -5610)"/>
  <path class="a" d="M1481.61,5613.06a0.46,0.46,0,0,0-.48.44v0.87a0.48,0.48,0,0,0,1,0v-0.87A0.46,0.46,0,0,0,1481.61,5613.06Z" transform="translate(-1462 -5610)"/>
  <path class="a" d="M1481.61,5615.69a0.46,0.46,0,0,0-.48.44v18.81a0.48,0.48,0,0,0,1,0v-18.81A0.46,0.46,0,0,0,1481.61,5615.69Z" transform="translate(-1462 -5610)"/>
</svg>
