<svg xmlns="http://www.w3.org/2000/svg" width="7.03mm" height="6.17mm" viewBox="0 0 19.92 17.5">
  <defs>
    <style>
      .a {
        fill: #231f20;
      }
    </style>
  </defs>
  <title>icon_social_google_plus</title>
  <path class="a" d="M125,11a3.7,3.7,0,0,1-1.48-1.76c0-.61.17-0.9,1.08-1.62a3.47,3.47,0,0,0,1.49-2.83c0-1.42-.53-3.14-1.71-3.14h1.79l1.26-.83h-5.63c-2.53,0-4.9,1.75-4.9,4a4,4,0,0,0,4.29,4c0.18,0,.35,0,0.52-0.06a2.23,2.23,0,0,0-.29,1,2.19,2.19,0,0,0,.77,1.55h-1c-3.13,0-6,1.69-6,3.76s3.08,3.19,6.21,3.19c3.57,0,5.41-1.59,5.41-3.64A3.84,3.84,0,0,0,125,11Zm-3-2.84c-1.45,0-2.83-1.63-3.08-3.55s0.72-3.38,2.17-3.34,2.83,1.58,3.08,3.49S123.42,8.23,122,8.19Zm-0.57,9.24c-2.16,0-3.72-.93-3.72-2.59s1.94-3,4.1-2.94a4.73,4.73,0,0,1,1.4.22c1.17,0.82,1.81,1.28,2,2.22a2.55,2.55,0,0,1,.07.58C125.29,16.59,124.44,17.43,121.4,17.43Z" transform="translate(-115.2 -0.84)"/>
  <path class="a" d="M132.64,1.63V4.17h2.48V5.85h-2.48v2.5H131V5.85H128.5V4.17H131V1.63h1.66Z" transform="translate(-115.2 -0.84)"/>
</svg>
