<svg xmlns="http://www.w3.org/2000/svg" width="7.01mm" height="7.04mm" viewBox="0 0 19.87 19.97">
  <defs>
    <style>
      .a {
        fill: #231f20;
      }
    </style>
  </defs>
  <title>icon_social_rss</title>
  <path class="a" d="M78.34,14.18a2.89,2.89,0,1,0,2.9,2.89A2.9,2.9,0,0,0,78.34,14.18Z" transform="translate(-75.44 -0.02)"/>
  <path class="a" d="M75.59,6.69H75.44v3.69h0.15A9.5,9.5,0,0,1,85,19.76c0,0.08,0,.15,0,0.23h3.7c0-.08,0-0.15,0-0.23A13.2,13.2,0,0,0,75.59,6.69Z" transform="translate(-75.44 -0.02)"/>
  <path class="a" d="M75.59,0H75.44V3.75h0.15a16.13,16.13,0,0,1,16.07,16c0,0.08,0,.15,0,0.23H95.3c0-.08,0-0.15,0-0.23A19.81,19.81,0,0,0,75.59,0Z" transform="translate(-75.44 -0.02)"/>
</svg>
