<svg xmlns="http://www.w3.org/2000/svg" width="7.76mm" height="10.94mm" viewBox="0 0 22 31">
  <title>icon_anchor</title>
  <style>
	.a {
		fill: #e74c3c;
	}
  </style>
  <path class="a" d="M970.89,988.3l-2.51-3.77a0.63,0.63,0,0,0-1.06,0l-2.51,3.77a0.67,0.67,0,0,0,0,.67,0.64,0.64,0,0,0,.57.35h1.24a6.85,6.85,0,0,1-5.08,4.61V979.47h2a1,1,0,0,0,0-2h-1a3.73,3.73,0,0,0,1.18-2.72,3.64,3.64,0,1,0-7.28,0,3.73,3.73,0,0,0,1.18,2.72h-1a1,1,0,0,0,0,2h2v14.46a6.85,6.85,0,0,1-5.08-4.61h1.24a0.64,0.64,0,0,0,.57-0.35,0.67,0.67,0,0,0,0-.67l-2.51-3.77a0.63,0.63,0,0,0-1.06,0l-2.51,3.77a0.67,0.67,0,0,0,0,.67,0.64,0.64,0,0,0,.57.35H951a11.08,11.08,0,0,0,6.78,8.24l-0.25.31a0.67,0.67,0,0,0,0,.77l2,3.06a0.63,0.63,0,0,0,1.07,0l2-3.06a0.66,0.66,0,0,0,0-.77l-0.25-.31a11.08,11.08,0,0,0,6.78-8.24h1.35a0.64,0.64,0,0,0,.57-0.35A0.67,0.67,0,0,0,970.89,988.3ZM960,973a1.68,1.68,0,1,1-1.64,1.68A1.66,1.66,0,0,1,960,973Z" transform="translate(-949 -971)"/>
</svg>
