<svg xmlns="http://www.w3.org/2000/svg" width="9.53mm" height="7.76mm" viewBox="0 0 27 22">
  <defs>
    <style>
      .a {
        fill: #e64c3c;
      }
    </style>
  </defs>
  <title>icon_monitu</title>
  <path class="a" d="M1046.62,2439.12h-5.19v-1.91a0.45,0.45,0,0,0-.89,0v1.91h-2.08v-1.91a0.45,0.45,0,0,0-.89,0v1.91h-5.19a0.44,0.44,0,1,0,0,.88h14.24A0.44,0.44,0,1,0,1046.62,2439.12Z" transform="translate(-1026 -2418)"/>
  <path class="a" d="M1052,2418H1027a1,1,0,0,0-1,1v15.84a1,1,0,0,0,1,1h19.73V2436a0.45,0.45,0,0,0,.89,0v-0.15h0.89V2436a0.45,0.45,0,0,0,.89,0v-0.15h0.89V2436a0.45,0.45,0,0,0,.89,0v-0.15H1052a1,1,0,0,0,1-1V2419A1,1,0,0,0,1052,2418Zm0.15,16.87a0.15,0.15,0,0,1-.15.15H1027a0.15,0.15,0,0,1-.15-0.15V2419a0.15,0.15,0,0,1,.15-0.15H1052a0.15,0.15,0,0,1,.15.15v15.84Z" transform="translate(-1026 -2418)"/>
  <path class="a" d="M1050.77,2419.76h-22.55a0.44,0.44,0,1,0,0,.88h22.1v8.95a0.45,0.45,0,0,0,.89,0v-9.39A0.44,0.44,0,0,0,1050.77,2419.76Z" transform="translate(-1026 -2418)"/>
  <path class="a" d="M1050.77,2430.91a0.44,0.44,0,0,0-.45.44v1.91h-21.66V2422a0.45,0.45,0,0,0-.89,0v11.73a0.44,0.44,0,0,0,.45.44h22.55a0.44,0.44,0,0,0,.45-0.44v-2.35A0.44,0.44,0,0,0,1050.77,2430.91Z" transform="translate(-1026 -2418)"/>
</svg>
