<svg xmlns="http://www.w3.org/2000/svg" width="8.82mm" height="7.76mm" viewBox="0 0 25 22">
  <defs>
    <style>
      .a {
        fill: #e64c3c;
      }
    </style>
  </defs>
  <title>icon_camera</title>
  <path class="a" d="M1047.65,2708.2H1045l-2.51-3.8a0.83,0.83,0,0,0-.69-0.39h-6.77a0.83,0.83,0,0,0-.67.38l-2.6,3.81h-2.43a3.39,3.39,0,0,0-3.35,3.4v11a3.41,3.41,0,0,0,3.35,3.42h18.3a3.41,3.41,0,0,0,3.35-3.42v-11A3.39,3.39,0,0,0,1047.65,2708.2Zm1.7,14.38a1.75,1.75,0,0,1-1.7,1.75h-18.3a1.75,1.75,0,0,1-1.7-1.75v-11a1.72,1.72,0,0,1,1.7-1.73h2.87a0.82,0.82,0,0,0,.67-0.38l2.6-3.81h5.89l2.5,3.79a0.85,0.85,0,0,0,.67.38l3.08,0a1.72,1.72,0,0,1,1.7,1.73v11h0Z" transform="translate(-1026 -2704)"/>
  <path class="a" d="M1038.57,2710.21a5.91,5.91,0,1,0,5.84,5.91A5.88,5.88,0,0,0,1038.57,2710.21Zm0,10.16a4.24,4.24,0,1,1,4.19-4.24A4.23,4.23,0,0,1,1038.57,2720.36Z" transform="translate(-1026 -2704)"/>
  <path class="a" d="M1046.38,2712.33a0.32,0.32,0,1,1-.32.32A0.32,0.32,0,0,1,1046.38,2712.33Z" transform="translate(-1026 -2704)"/>
  <path class="a" d="M1046.38,2711.5a1.15,1.15,0,1,0,1.14,1.16A1.14,1.14,0,0,0,1046.38,2711.5Zm0,1.67a0.51,0.51,0,0,1-.51-0.51,0.51,0.51,0,1,1,1,0A0.51,0.51,0,0,1,1046.38,2713.17Z" transform="translate(-1026 -2704)"/>
</svg>
