<svg xmlns="http://www.w3.org/2000/svg" width="10.94mm" height="9.16mm" viewBox="0 0 31 25.97">
  <defs>
    <style>
      .a {
        fill: #e64c3c;
      }
    </style>
  </defs>
  <title>icon_papers</title>
  <path class="a" d="M1041.4,2559a3.4,3.4,0,0,0-1.46.32l-15.16,7.31a1,1,0,0,0,0,2l8.53,4.11a0.46,0.46,0,0,0,.2,0l8.53-.15a0.45,0.45,0,0,0,.19,0l12-5.79a1,1,0,0,0,0-2l-11.37-5.48A3.4,3.4,0,0,0,1041.4,2559Zm0,0.9a2.63,2.63,0,0,1,1.07.19l11.37,5.48a0.23,0.23,0,1,1,0,.44l-11.81,5.7-4.23-2a0.45,0.45,0,0,0-.39,0l-4.23,2-8-3.87a0.23,0.23,0,1,1,0-.44l15.16-7.31A2.61,2.61,0,0,1,1041.4,2559.9Zm1.25,2a0.22,0.22,0,0,0-.09.41l6.32,3a0.22,0.22,0,0,0,.3-0.09,0.21,0.21,0,0,0-.09-0.29h0l-6.32-3Zm-3.16,1.52a0.22,0.22,0,0,0-.21.22,0.22,0.22,0,0,0,.13.19l6.32,3a0.22,0.22,0,0,0,.3-0.09,0.22,0.22,0,0,0-.09-0.29h0l-6.32-3Zm-3.16,1.52a0.22,0.22,0,0,0-.22.22,0.22,0.22,0,0,0,.13.19l6.32,3a0.22,0.22,0,0,0,.3-0.1,0.21,0.21,0,0,0-.1-0.29l-6.32-3Zm-5.46.15-0.1,0-4.74,2.29a0.21,0.21,0,0,0-.1.29,0.22,0.22,0,0,0,.1.1l2.21,1.07a0.22,0.22,0,0,0,.3-0.09,0.21,0.21,0,0,0-.09-0.29h0l-1.81-.87,4.34-2.09a0.21,0.21,0,0,0,.11-0.29A0.22,0.22,0,0,0,1030.87,2565.12Zm6.73,5.42,2.59,1.25-5.38.1Zm16.78,0.05a0.55,0.55,0,0,0-.24.06l-16.72,7.95-12.63-6.21a0.54,0.54,0,0,0-.72.23,0.52,0.52,0,0,0,.23.71h0l12.87,6.32a0.55,0.55,0,0,0,.48,0l17-8.06a0.52,0.52,0,0,0,.26-0.7A0.54,0.54,0,0,0,1054.38,2570.6Zm-11.65,4.21a0.27,0.27,0,0,0-.12,0l-5.26,2.57-4.72-2.36a0.27,0.27,0,0,0-.36.12,0.26,0.26,0,0,0,.12.35l4.84,2.42a0.28,0.28,0,0,0,.24,0l5.38-2.63a0.26,0.26,0,0,0,.13-0.35A0.27,0.27,0,0,0,1042.73,2574.81Zm11.65,1a0.54,0.54,0,0,0-.24.06l-16.72,7.95-12.63-6.21a0.54,0.54,0,0,0-.73.22,0.52,0.52,0,0,0,.22.71h0l12.87,6.32a0.55,0.55,0,0,0,.48,0l17-8.06a0.52,0.52,0,0,0,.26-0.7A0.54,0.54,0,0,0,1054.38,2575.85Zm-11.65,4.21a0.27,0.27,0,0,0-.12,0l-5.26,2.57-4.72-2.36a0.27,0.27,0,0,0-.36.11,0.26,0.26,0,0,0,.11.36h0l4.84,2.42a0.27,0.27,0,0,0,.24,0l5.38-2.63a0.26,0.26,0,0,0,.13-0.35A0.27,0.27,0,0,0,1042.73,2580.06Z" transform="translate(-1024 -2559)"/>
</svg>
