<svg xmlns="http://www.w3.org/2000/svg" width="7.02mm" height="7.05mm" viewBox="0 0 19.9 19.99">
  <defs>
    <style>
      .a {
        fill: #231f20;
      }
    </style>
  </defs>
  <title>icon_social_skype</title>
  <path class="a" d="M209.94,11.35A8.93,8.93,0,0,0,210,10a8.69,8.69,0,0,0-8.87-8.68,9,9,0,0,0-1.34.11A5.25,5.25,0,0,0,196.55,0a5.08,5.08,0,0,0-4,8.13,9.12,9.12,0,0,0,8.67,11A8.89,8.89,0,0,0,203,19a4.84,4.84,0,0,0,3.32,1A5.08,5.08,0,0,0,209.94,11.35Zm-4.62,2.76a3.42,3.42,0,0,1-1.53,1.17,6.13,6.13,0,0,1-2.39.42,5.76,5.76,0,0,1-2.74-.58A3.53,3.53,0,0,1,197.41,14a2.39,2.39,0,0,1-.48-1.35,0.87,0.87,0,0,1,.29-0.65,1,1,0,0,1,.73-0.27,0.9,0.9,0,0,1,.61.21,1.63,1.63,0,0,1,.42.63,4.09,4.09,0,0,0,.46.82,1.84,1.84,0,0,0,.7.55,2.78,2.78,0,0,0,1.19.22,2.83,2.83,0,0,0,1.64-.44,1.28,1.28,0,0,0,.63-1.08,1.1,1.1,0,0,0-.34-0.84,2.25,2.25,0,0,0-.88-0.49q-0.54-.17-1.44-0.36a11.2,11.2,0,0,1-2-.61,3.24,3.24,0,0,1-1.29-1,2.35,2.35,0,0,1-.48-1.5,2.44,2.44,0,0,1,.5-1.52,3.16,3.16,0,0,1,1.46-1A6.42,6.42,0,0,1,201.36,5a6,6,0,0,1,1.79.24,3.89,3.89,0,0,1,1.25.63,2.69,2.69,0,0,1,.73.82,1.78,1.78,0,0,1,.23.84,1,1,0,0,1-1,1,0.87,0.87,0,0,1-.59-0.18,2.41,2.41,0,0,1-.44-0.59,2.69,2.69,0,0,0-.73-0.91,2.27,2.27,0,0,0-1.38-.33,2.52,2.52,0,0,0-1.42.36,1,1,0,0,0-.54.86,0.83,0.83,0,0,0,.18.54,1.49,1.49,0,0,0,.5.39,3.59,3.59,0,0,0,.65.26l1.09,0.27q0.95,0.21,1.72.45a5.47,5.47,0,0,1,1.31.6,2.54,2.54,0,0,1,.84.9,2.67,2.67,0,0,1,.3,1.32A2.88,2.88,0,0,1,205.32,14.11Z" transform="translate(-191.5 0)"/>
</svg>
